<svg version="1.1" id="Layer_1" xmlns="http://www.w3.org/2000/svg" xmlns:xlink="http://www.w3.org/1999/xlink" x="0px" y="0px"
	 width="100%" viewBox="0 0 200 200" enable-background="new 0 0 200 200" xml:space="preserve">
<path fill="#FDFDFE" opacity="1.000000" stroke="none" 
	d="
M201.000000,73.000000 
	C201.000000,116.000000 201.000000,158.500000 201.000000,201.000000 
	C134.333328,201.000000 67.666664,201.000000 1.000000,201.000000 
	C1.000000,134.333328 1.000000,67.666664 1.000000,1.000000 
	C67.666664,1.000000 134.333328,1.000000 201.000000,1.000000 
	C201.000000,24.833334 201.000000,48.666668 201.000000,73.000000 
M76.499870,173.494736 
	C111.729301,173.494736 146.958725,173.494736 182.078796,173.494736 
	C182.078796,122.015739 182.078796,71.460548 182.078796,20.878323 
	C125.103813,20.878323 68.549911,20.878323 11.834622,20.878323 
	C11.834622,71.807091 11.834622,122.361900 11.834622,173.493820 
	C33.273102,173.493820 54.386467,173.493820 76.499870,173.494736 
z"/>
<path fill="#7F5FF3" opacity="1.000000" stroke="none" 
	d="
M75.999847,173.494278 
	C54.386467,173.493820 33.273102,173.493820 11.834622,173.493820 
	C11.834622,122.361900 11.834622,71.807091 11.834622,20.878323 
	C68.549911,20.878323 125.103813,20.878323 182.078796,20.878323 
	C182.078796,71.460548 182.078796,122.015739 182.078796,173.494736 
	C146.958725,173.494736 111.729301,173.494736 75.999847,173.494278 
M30.506260,168.272568 
	C79.243355,168.272568 127.980453,168.272568 176.841888,168.272568 
	C176.841888,120.433006 176.841888,73.266289 176.841888,26.061304 
	C123.374603,26.061304 70.330490,26.061304 17.159142,26.061304 
	C17.159142,73.565277 17.159142,120.731262 17.159142,168.272949 
	C21.556026,168.272949 25.532234,168.272949 30.506260,168.272568 
z"/>
<path fill="#FEFDFE" opacity="1.000000" stroke="none" 
	d="
M30.007351,168.272766 
	C25.532234,168.272949 21.556026,168.272949 17.159142,168.272949 
	C17.159142,120.731262 17.159142,73.565277 17.159142,26.061304 
	C70.330490,26.061304 123.374603,26.061304 176.841888,26.061304 
	C176.841888,73.266289 176.841888,120.433006 176.841888,168.272568 
	C127.980453,168.272568 79.243355,168.272568 30.007351,168.272766 
M154.737732,63.888393 
	C156.791473,62.913654 158.845215,61.938915 161.549576,60.710106 
	C166.043289,57.258442 167.249710,52.598831 165.551575,47.486183 
	C163.965210,42.709991 160.158951,40.298573 155.087219,39.932529 
	C154.351044,39.879395 153.647934,39.367825 152.403793,38.424358 
	C145.971313,38.282555 139.538651,38.044678 133.106445,38.055920 
	C131.106766,38.059418 129.108261,38.737961 127.087341,39.900238 
	C127.399536,40.233288 127.754814,40.887402 128.017593,40.852142 
	C133.684341,40.091694 133.960953,43.465210 133.864807,47.802822 
	C133.647751,57.596497 133.634445,67.402138 133.867111,77.195099 
	C133.978577,81.886528 133.910156,85.865509 127.621651,85.509430 
	C127.552948,85.505547 127.453247,86.049026 127.294380,86.585754 
	C134.132629,86.585754 140.880096,86.585754 147.627548,86.585754 
	C146.983536,85.419983 146.224884,84.937660 145.561661,85.045021 
	C140.516296,85.861732 139.760361,83.136627 139.996048,78.954575 
	C140.257248,74.320099 140.032043,69.658195 140.907440,64.796227 
	C144.612411,64.543030 148.317383,64.289833 152.697632,64.092697 
	C153.138397,64.002708 153.579163,63.912720 154.737732,63.888393 
M38.708744,61.229919 
	C26.861040,85.962624 27.259901,110.532944 40.783009,134.358948 
	C49.161598,149.120941 62.269611,156.512100 79.633163,155.946030 
	C99.563278,155.296234 117.900360,132.617264 114.273788,112.624771 
	C112.716164,112.624771 111.136185,112.624771 109.420586,112.624771 
	C108.940613,115.504936 108.604759,118.134186 108.053261,120.717392 
	C106.218369,129.311935 103.306595,137.513382 96.647926,143.579483 
	C81.555382,157.328934 58.413471,151.143219 51.869366,131.799820 
	C47.129341,117.789009 47.085232,103.263916 47.820156,88.806717 
	C48.289299,79.577835 49.120415,70.095566 51.730591,61.303223 
	C57.373428,42.295433 77.234207,37.856758 91.518944,51.712124 
	C99.799072,59.743362 104.169136,69.895691 107.614761,80.621971 
	C108.014595,81.866669 109.587349,82.734596 110.616318,83.777199 
	C111.301514,82.496559 112.559593,81.225357 112.580894,79.933769 
	C112.745636,69.944176 112.671234,59.950630 112.670959,49.958309 
	C112.670868,46.706631 112.670952,43.454948 112.670952,40.203270 
	C112.152245,39.914738 111.633545,39.626209 111.114838,39.337677 
	C109.882019,40.412949 108.517090,41.375607 107.467384,42.606987 
	C106.866249,43.312168 106.788940,44.458179 106.456200,45.398792 
	C104.091080,52.084827 103.111916,52.370201 97.579185,48.248547 
	C95.180214,46.461418 92.747063,44.681927 90.160172,43.193062 
	C84.280327,39.808960 78.048683,37.958694 71.095093,38.667938 
	C56.381435,40.168674 46.336246,48.305054 38.708744,61.229919 
M142.501541,99.327225 
	C148.834702,99.326508 155.172195,99.445259 161.497116,99.216660 
	C162.657242,99.174728 163.766357,97.721649 164.899017,96.919937 
	C163.879517,96.176575 162.868942,94.801567 161.839127,94.786995 
	C150.841644,94.631340 139.840195,94.630882 128.842957,94.795731 
	C127.867622,94.810356 126.914207,96.287376 125.950615,97.085197 
	C126.968201,97.830124 127.950638,99.153534 129.009583,99.217880 
	C133.160950,99.470100 137.336472,99.325096 142.501541,99.327225 
z"/>
<path fill="#7653F2" opacity="1.000000" stroke="none" 
	d="
M38.888191,60.909149 
	C46.336246,48.305054 56.381435,40.168674 71.095093,38.667938 
	C78.048683,37.958694 84.280327,39.808960 90.160172,43.193062 
	C92.747063,44.681927 95.180214,46.461418 97.579185,48.248547 
	C103.111916,52.370201 104.091080,52.084827 106.456200,45.398792 
	C106.788940,44.458179 106.866249,43.312168 107.467384,42.606987 
	C108.517090,41.375607 109.882019,40.412949 111.114838,39.337677 
	C111.633545,39.626209 112.152245,39.914738 112.670952,40.203270 
	C112.670952,43.454948 112.670868,46.706631 112.670959,49.958309 
	C112.671234,59.950630 112.745636,69.944176 112.580894,79.933769 
	C112.559593,81.225357 111.301514,82.496559 110.616318,83.777199 
	C109.587349,82.734596 108.014595,81.866669 107.614761,80.621971 
	C104.169136,69.895691 99.799072,59.743362 91.518944,51.712124 
	C77.234207,37.856758 57.373428,42.295433 51.730591,61.303223 
	C49.120415,70.095566 48.289299,79.577835 47.820156,88.806717 
	C47.085232,103.263916 47.129341,117.789009 51.869366,131.799820 
	C58.413471,151.143219 81.555382,157.328934 96.647926,143.579483 
	C103.306595,137.513382 106.218369,129.311935 108.053261,120.717392 
	C108.604759,118.134186 108.940613,115.504936 109.420586,112.624771 
	C111.136185,112.624771 112.716164,112.624771 114.273788,112.624771 
	C117.900360,132.617264 99.563278,155.296234 79.633163,155.946030 
	C62.269611,156.512100 49.161598,149.120941 40.783009,134.358948 
	C27.259901,110.532944 26.861040,85.962624 38.888191,60.909149 
z"/>
<path fill="#724EF5" opacity="1.000000" stroke="none" 
	d="
M140.018631,65.008240 
	C140.032043,69.658195 140.257248,74.320099 139.996048,78.954575 
	C139.760361,83.136627 140.516296,85.861732 145.561661,85.045021 
	C146.224884,84.937660 146.983536,85.419983 147.627548,86.585754 
	C140.880096,86.585754 134.132629,86.585754 127.294380,86.585754 
	C127.453247,86.049026 127.552948,85.505547 127.621651,85.509430 
	C133.910156,85.865509 133.978577,81.886528 133.867111,77.195099 
	C133.634445,67.402138 133.647751,57.596497 133.864807,47.802822 
	C133.960953,43.465210 133.684341,40.091694 128.017593,40.852142 
	C127.754814,40.887402 127.399536,40.233288 127.532242,39.473194 
	C130.314819,39.071476 132.652496,39.096798 135.249969,39.366539 
	C137.005219,40.396942 138.500687,41.182926 140.018173,42.439774 
	C140.053757,49.220470 140.067322,55.530296 140.056625,62.235901 
	C140.027786,63.423862 140.023209,64.216049 140.018631,65.008240 
z"/>
<path fill="#7754F4" opacity="1.000000" stroke="none" 
	d="
M139.996155,41.968910 
	C138.500687,41.182926 137.005219,40.396942 135.716248,39.312321 
	C141.591690,39.031918 147.260605,39.050156 152.929535,39.068390 
	C153.647934,39.367825 154.351044,39.879395 155.087219,39.932529 
	C160.158951,40.298573 163.965210,42.709991 165.551575,47.486183 
	C167.249710,52.598831 166.043289,57.258442 160.848022,60.852077 
	C158.433243,61.332058 156.720016,61.670067 154.837280,61.828186 
	C154.667770,61.648300 154.328491,61.288738 154.571838,61.047073 
	C155.786804,59.484997 157.013779,58.282246 157.685776,56.823788 
	C160.588058,50.524784 158.212357,42.592144 152.579117,41.524593 
	C148.557297,40.762417 144.202423,41.757793 139.996155,41.968910 
z"/>
<path fill="#734EF6" opacity="1.000000" stroke="none" 
	d="
M142.002289,99.327438 
	C137.336472,99.325096 133.160950,99.470100 129.009583,99.217880 
	C127.950638,99.153534 126.968201,97.830124 125.950615,97.085190 
	C126.914207,96.287376 127.867622,94.810356 128.842957,94.795731 
	C139.840195,94.630882 150.841644,94.631340 161.839127,94.786995 
	C162.868942,94.801567 163.879517,96.176575 164.899017,96.919937 
	C163.766357,97.721649 162.657242,99.174728 161.497116,99.216660 
	C155.172195,99.445259 148.834702,99.326508 142.002289,99.327438 
z"/>
<path fill="#7F5FF3" opacity="1.000000" stroke="none" 
	d="
M140.463028,64.902237 
	C140.023209,64.216049 140.027786,63.423862 140.507751,62.299133 
	C144.658783,62.013374 148.334427,62.060158 152.006775,62.428566 
	C152.009750,63.179008 152.016052,63.607822 152.022339,64.036636 
	C148.317383,64.289833 144.612411,64.543030 140.463028,64.902237 
z"/>
<path fill="#B9B5C7" opacity="1.000000" stroke="none" 
	d="
M152.666656,38.746376 
	C147.260605,39.050156 141.591690,39.031918 135.456467,39.067902 
	C132.652496,39.096798 130.314819,39.071476 127.543182,39.076813 
	C129.108261,38.737961 131.106766,38.059418 133.106445,38.055920 
	C139.538651,38.044678 145.971313,38.282555 152.666656,38.746376 
z"/>
<path fill="#7F5FF3" opacity="1.000000" stroke="none" 
	d="
M155.006805,62.008076 
	C156.720016,61.670067 158.433243,61.332058 160.522705,60.979111 
	C158.845215,61.938915 156.791473,62.913654 154.487213,63.619957 
	C154.493378,62.903706 154.750092,62.455891 155.006805,62.008076 
z"/>
<path fill="#7754F4" opacity="1.000000" stroke="none" 
	d="
M154.837280,61.828186 
	C154.750092,62.455891 154.493378,62.903706 154.128296,63.587120 
	C153.579163,63.912720 153.138397,64.002708 152.359985,64.064667 
	C152.016052,63.607822 152.009750,63.179008 152.294586,62.318939 
	C153.166641,61.688034 153.747574,61.488384 154.328491,61.288738 
	C154.328491,61.288738 154.667770,61.648300 154.837280,61.828186 
z"/>
<path fill="#FBFBFC" opacity="1.000000" stroke="none" 
	d="
M154.571838,61.047073 
	C153.747574,61.488384 153.166641,61.688034 152.297913,61.997311 
	C148.334427,62.060158 144.658783,62.013374 140.532013,61.903358 
	C140.067322,55.530296 140.053757,49.220470 140.018173,42.439774 
	C144.202423,41.757793 148.557297,40.762417 152.579117,41.524593 
	C158.212357,42.592144 160.588058,50.524784 157.685776,56.823788 
	C157.013779,58.282246 155.786804,59.484997 154.571838,61.047073 
z"/>
</svg>